HIERARCHY
ROOT Hips
{
	OFFSET 0.000000 89.005402 0.000000
	CHANNELS 6 Xposition Yposition Zposition Xrotation Yrotation Zrotation
	JOINT Spine
	{
		OFFSET 0.116900 10.681000 0.373400
		CHANNELS 3 Xrotation Yrotation Zrotation
		JOINT Spine1
		{
			OFFSET 0.000000 13.840401 0.053500
			CHANNELS 3 Xrotation Yrotation Zrotation
			JOINT Spine2
			{
				OFFSET 0.000000 14.712700 -0.366200
				CHANNELS 3 Xrotation Yrotation Zrotation
				JOINT Neck
				{
					OFFSET 0.000000 35.415497 -3.314200
					CHANNELS 3 Xrotation Yrotation Zrotation
					JOINT Head
					{
						OFFSET 0.000000 16.899200 1.218300
						CHANNELS 3 Xrotation Yrotation Zrotation
						JOINT HeadTop_End
						{
							OFFSET 0.000000 22.206207 2.192500
							CHANNELS 3 Xrotation Yrotation Zrotation
							End Site
							{
								OFFSET 0.000000 22.314178 0.000000
							}
						}
					}
				}
				JOINT LeftShoulder
				{
					OFFSET 12.896400 26.716293 -4.548400
					CHANNELS 3 Xrotation Yrotation Zrotation
					JOINT LeftArm
					{
						OFFSET 19.027000 -4.857010 -1.718400
						CHANNELS 3 Xrotation Yrotation Zrotation
						JOINT LeftForeArm
						{
							OFFSET 24.179897 0.000000 0.000000
							CHANNELS 3 Xrotation Yrotation Zrotation
							JOINT LeftHand
							{
								OFFSET 27.156403 0.000000 0.000000
								CHANNELS 3 Xrotation Yrotation Zrotation
								JOINT LeftHandIndex1
								{
									OFFSET 16.441200 0.000000 0.000000
									CHANNELS 3 Xrotation Yrotation Zrotation
									JOINT LeftHandIndex2
									{
										OFFSET 4.821899 0.000000 0.000000
										CHANNELS 3 Xrotation Yrotation Zrotation
										JOINT LeftHandIndex3
										{
											OFFSET 6.386497 0.000000 0.000000
											CHANNELS 3 Xrotation Yrotation Zrotation
											JOINT LeftHandIndex4
											{
												OFFSET 5.188988 0.000000 0.000000
												CHANNELS 3 Xrotation Yrotation Zrotation
												End Site
												{
													OFFSET -0.178703 5.185913 0.000177
												}
											}
										}
									}
								}
								JOINT LeftHandThumb1
								{
									OFFSET 6.534897 -5.032593 5.900300
									CHANNELS 3 Xrotation Yrotation Zrotation
									JOINT LeftHandThumb2
									{
										OFFSET 3.818176 -2.204422 2.204423
										CHANNELS 3 Xrotation Yrotation Zrotation
										JOINT LeftHandThumb3
										{
											OFFSET 3.252098 -1.877594 1.877601
											CHANNELS 3 Xrotation Yrotation Zrotation
											JOINT LeftHandThumb4
											{
												OFFSET 5.251778 -3.032120 3.032117
												CHANNELS 3 Xrotation Yrotation Zrotation
												End Site
												{
													OFFSET 0.000023 6.780014 0.000000
												}
											}
										}
									}
								}
							}
						}
					}
				}
				JOINT RightShoulder
				{
					OFFSET -12.896300 26.716293 -4.548400
					CHANNELS 3 Xrotation Yrotation Zrotation
					JOINT RightArm
					{
						OFFSET -19.027000 -4.857010 -1.718400
						CHANNELS 3 Xrotation Yrotation Zrotation
						JOINT RightForeArm
						{
							OFFSET -24.179897 0.000000 0.000000
							CHANNELS 3 Xrotation Yrotation Zrotation
							JOINT RightHand
							{
								OFFSET -27.156403 0.000000 0.000000
								CHANNELS 3 Xrotation Yrotation Zrotation
								JOINT RightHandThumb1
								{
									OFFSET -6.591202 -4.852203 5.988100
									CHANNELS 3 Xrotation Yrotation Zrotation
									JOINT RightHandThumb2
									{
										OFFSET -3.818176 -2.204422 2.204423
										CHANNELS 3 Xrotation Yrotation Zrotation
										JOINT RightHandThumb3
										{
											OFFSET -3.252098 -1.877594 1.877601
											CHANNELS 3 Xrotation Yrotation Zrotation
											JOINT RightHandThumb4
											{
												OFFSET -5.251778 -3.032120 3.032117
												CHANNELS 3 Xrotation Yrotation Zrotation
												End Site
												{
													OFFSET -0.000023 6.780014 0.000000
												}
											}
										}
									}
								}
								JOINT RightHandIndex1
								{
									OFFSET -16.029404 0.000000 0.000000
									CHANNELS 3 Xrotation Yrotation Zrotation
									JOINT RightHandIndex2
									{
										OFFSET -5.213303 0.000000 0.000000
										CHANNELS 3 Xrotation Yrotation Zrotation
										JOINT RightHandIndex3
										{
											OFFSET -6.386528 0.000000 0.000000
											CHANNELS 3 Xrotation Yrotation Zrotation
											JOINT RightHandIndex4
											{
												OFFSET -5.189026 0.000000 0.000000
												CHANNELS 3 Xrotation Yrotation Zrotation
												End Site
												{
													OFFSET 0.236702 5.183624 0.001972
												}
											}
										}
									}
								}
							}
						}
					}
				}
			}
		}
	}
	JOINT LeftUpLeg
	{
		OFFSET 14.073000 -7.904099 -1.463000
		CHANNELS 3 Xrotation Yrotation Zrotation
		JOINT LeftLeg
		{
			OFFSET -0.109806 -34.073280 4.093200
			CHANNELS 3 Xrotation Yrotation Zrotation
			JOINT LeftFoot
			{
				OFFSET 0.109806 -29.899420 -6.319000
				CHANNELS 3 Xrotation Yrotation Zrotation
				JOINT LeftToeBase
				{
					OFFSET 1.551100 -14.988700 20.535801
					CHANNELS 3 Xrotation Yrotation Zrotation
					JOINT LeftToe_End
					{
						OFFSET 0.221200 0.570800 13.248301
						CHANNELS 3 Xrotation Yrotation Zrotation
						End Site
						{
							OFFSET 0.000000 13.262435 0.000000
						}
					}
				}
			}
		}
	}
	JOINT RightUpLeg
	{
		OFFSET -13.839300 -7.904099 -1.463000
		CHANNELS 3 Xrotation Yrotation Zrotation
		JOINT RightLeg
		{
			OFFSET 0.109694 -34.073219 4.093300
			CHANNELS 3 Xrotation Yrotation Zrotation
			JOINT RightFoot
			{
				OFFSET -0.109694 -29.899384 -6.319200
				CHANNELS 3 Xrotation Yrotation Zrotation
				JOINT RightToeBase
				{
					OFFSET -1.551100 -14.988700 20.535801
					CHANNELS 3 Xrotation Yrotation Zrotation
					JOINT RightToe_End
					{
						OFFSET -0.221200 0.570900 13.248299
						CHANNELS 3 Xrotation Yrotation Zrotation
						End Site
						{
							OFFSET 0.000000 13.262440 0.000000
						}
					}
				}
			}
		}
	}
}
MOTION
Frames: 4
Frame Time: 0.033333
0.235843 85.207924 1.459916 1.940113 1.893224 -0.689296 6.185415 -1.179384 0.567175 2.498168 -2.419468 1.232352 2.471491 -2.375264 1.342052 -0.476780 2.129172 -0.237484 -3.192898 4.531013 -1.879431 0.000000 -0.000000 0.000000 0.352378 -9.169221 -14.380743 9.011951 -24.442283 -57.554596 -0.000000 -11.061368 0.000012 3.271977 3.566754 -10.594354 -2.232799 -4.151964 -17.702144 0.202676 1.529147 -15.099424 0.202671 1.529128 -15.099434 -0.000000 -0.000000 0.000000 5.262661 3.579101 10.844527 6.475013 8.367163 6.366704 2.004049 -7.323192 21.356525 0.000000 -0.000001 -0.000002 0.552468 4.135213 15.717228 2.585511 28.440238 49.448705 0.000003 23.198755 -0.000007 -1.370123 0.937418 5.904099 12.604598 -3.092103 -3.819376 4.958734 -19.016357 -8.084337 -16.135111 -1.565544 -12.132481 0.000001 -0.000001 0.000000 -2.604815 4.000954 20.793317 0.395182 -1.879121 23.750086 0.077967 -0.849551 10.488006 -0.000001 -0.000002 -0.000001 -28.506908 9.369023 4.441636 55.046858 -3.718001 -0.328481 0.392674 -0.577618 1.463714 -29.131508 -0.725771 1.897009 -0.000000 0.000000 0.000000 -14.378276 -7.608171 2.518467 24.646753 2.410773 -4.425662 -12.759438 -0.010382 0.347234 -4.971787 -0.000000 0.000000 -0.000000 -0.000000 0.000000 
0.475656 85.512077 4.810191 1.696757 1.476208 0.105310 6.106237 -0.361716 -0.272936 2.569242 -2.151516 1.066842 2.543623 -2.108528 1.169352 -0.327049 2.071902 -0.356873 -2.434664 4.372886 -2.274113 0.000000 0.000000 -0.000000 0.351745 -8.764747 -14.548612 11.059786 -23.204181 -56.739450 0.000003 -15.078097 -0.000001 -1.253610 3.959182 -9.654319 -2.232798 -4.151952 -17.702153 0.202682 1.529132 -15.099419 0.202683 1.529139 -15.099453 0.000003 -0.000001 -0.000001 5.262669 3.579093 10.844511 6.475006 8.367158 6.366706 2.004056 -7.323192 21.356521 -0.000002 -0.000000 -0.000000 0.533786 4.203407 15.459846 2.563835 27.842546 50.247113 -0.000009 24.867995 0.000001 -1.576513 1.321978 6.557919 12.604600 -3.092105 -3.819378 4.958729 -19.016353 -8.084314 -16.135104 -1.565539 -12.132460 0.000001 0.000001 0.000003 -2.604819 4.000966 20.793312 0.395185 -1.879132 23.750086 0.077969 -0.849553 10.488007 0.000001 -0.000001 -0.000001 -30.502406 8.356529 3.833216 47.919231 -4.659858 -0.921070 1.104418 0.102888 1.147039 -19.477075 -0.386341 1.811251 0.000000 0.000000 0.000000 -10.615086 -7.983013 1.433979 23.559778 3.596886 -4.198358 -15.249961 0.036869 0.357108 -4.933389 -0.000001 -0.000000 0.000000 0.000000 0.000000 
0.817243 85.484009 8.134871 1.347974 1.091684 0.809611 6.238286 0.170990 -0.825525 2.620445 -1.897745 0.921879 2.596317 -1.855793 1.016236 -0.284168 1.982369 -0.474087 -2.136384 4.342034 -2.666298 -0.000000 -0.000000 0.000000 0.366208 -7.748778 -14.887080 12.164715 -22.028615 -56.225410 0.000004 -18.309804 -0.000006 -2.731852 4.153192 -9.586773 -2.232807 -4.151958 -17.702143 0.202675 1.529136 -15.099434 0.202682 1.529135 -15.099450 0.000002 -0.000000 -0.000001 5.262647 3.579099 10.844542 6.475007 8.367144 6.366675 2.004054 -7.323196 21.356533 -0.000001 -0.000001 -0.000000 0.490016 4.740526 15.327926 1.970090 25.383220 51.547711 -0.000006 26.885272 0.000007 -0.685482 1.083944 8.040260 12.604588 -3.092111 -3.819386 4.958739 -19.016343 -8.084324 -16.135106 -1.565535 -12.132480 -0.000003 -0.000003 -0.000005 -2.604815 4.000960 20.793322 0.395172 -1.879137 23.750098 0.077977 -0.849562 10.487992 0.000000 -0.000003 -0.000005 -30.675209 7.545074 3.363016 39.080457 -3.005874 -0.912081 0.753942 0.190988 -0.414431 -7.443615 -0.000006 0.021500 -0.000000 -0.000000 0.000000 -7.077327 -8.497494 0.124221 23.122074 4.749569 -3.741807 -18.115603 0.081236 0.350382 -4.883121 0.000001 -0.000000 0.000000 0.000000 0.000000 
1.259211 85.297516 11.389050 1.315648 0.926329 1.105192 6.190750 0.380133 -0.837265 2.567687 -1.688881 0.819425 2.545563 -1.647786 0.904947 -0.302276 1.846983 -0.533109 -2.110430 4.364512 -3.149348 0.000000 -0.000000 0.000000 0.400989 -6.487650 -15.220052 11.734450 -21.769290 -56.157887 0.000001 -18.695693 -0.000003 -2.084734 2.707577 -9.731275 -2.232790 -4.151961 -17.702143 0.202679 1.529136 -15.099416 0.202669 1.529124 -15.099462 0.000003 0.000001 -0.000001 5.262651 3.579102 10.844538 6.475023 8.367152 6.366710 2.004056 -7.323189 21.356531 -0.000000 -0.000001 -0.000003 0.448227 5.588273 15.587824 1.146021 21.229912 52.513476 -0.000014 28.443087 0.000027 1.609718 1.245610 10.144247 12.604598 -3.092105 -3.819385 4.958745 -19.016350 -8.084329 -16.135113 -1.565536 -12.132474 -0.000002 0.000001 -0.000002 -2.604817 4.000960 20.793312 0.395179 -1.879136 23.750086 0.077968 -0.849553 10.488003 0.000001 -0.000002 -0.000003 -30.873445 6.479038 3.410255 28.712623 -1.736229 -0.430876 2.868949 0.181671 -4.410960 -5.892021 -0.000001 -0.000002 -0.000000 -0.000000 0.000000 -3.596920 -9.023705 -0.843808 22.031873 5.550211 -3.211975 -20.582119 0.062709 0.507277 -4.796707 -0.000000 -0.000000 -0.000000 -0.000000 0.000000 
